# xmcd CD database file
#
# Track frame offsets:
#	150
#	10425
#	22462
#	37462
#	48075
#	65097
#	79877
#	96534
#	109926
#	128407
#	142666
#	153821
#	168861
#
# Disc length: 2444 seconds
#
# Revision: 1
# Processed by: cddbd v1.5.2PL0 Copyright (c) Steve Scherf et al.
# Submitted via: CDex 1.40Release
#
DISCID=af098a0d
DTITLE=The Grascals - Long List Of Heartaches
DYEAR=2006
DGENRE=Bluegrass
TTITLE0=Home
TTITLE1=Long List Of Heartaches
TTITLE2=You Don't Have Very Far To Go
TTITLE3=Will You Be Loving Another Man
TTITLE4=Being Me
TTITLE5=Did You Forget God?
TTITLE6=Hard Times
TTITLE7=Cut Your Wheels
TTITLE8=Don't Tell Mama (Feat. George Jones)
TTITLE9=Roll Muddy River
TTITLE10=My Night To Howl
TTITLE11=Keep Me From Blowing Away
TTITLE12=Hoedown In Motown
EXTD=YEAR: 2006 ID3G: 89
EXTT0=
EXTT1=
EXTT2=
EXTT3=
EXTT4=
EXTT5=
EXTT6=
EXTT7=
EXTT8=
EXTT9=
EXTT10=
EXTT11=
EXTT12=
PLAYORDER=
